<svg width="47" height="47" viewBox="0 0 47 47" fill="none" xmlns="http://www.w3.org/2000/svg">
<g clip-path="url(#clip0_3311_4901)">
<path d="M35.25 14.1C31.5966 14.1 28.3739 15.8022 26.2189 18.4169L13.4764 9.92251C13.8697 9.04282 14.1 8.07537 14.1 7.05C14.1 3.15607 10.9439 0 7.05 0C3.15607 0 0 3.15607 0 7.05C0 10.9439 3.15607 14.1 7.05 14.1C9.07183 14.1 10.8821 13.2376 12.1683 11.8737L24.9147 20.3721C24.0413 22.0148 23.5 23.8603 23.5 25.85C23.5 27.1684 23.7663 28.4139 24.1666 29.5967L17.3783 32.6823C15.7223 30.0024 12.7824 28.2 9.4 28.2C4.20889 28.2 0 32.4089 0 37.6C0 42.7911 4.20889 47 9.4 47C14.5919 47 18.8 42.7911 18.8 37.6C18.8 36.6287 18.6104 35.7098 18.3371 34.8286L25.1372 31.7375C27.1738 35.2281 30.9174 37.6 35.25 37.6C41.7391 37.6 47 32.3391 47 25.85C47 19.3609 41.7391 14.1 35.25 14.1ZM7.05 11.75C4.45876 11.75 2.35 9.64124 2.35 7.05C2.35 4.45876 4.45876 2.35 7.05 2.35C9.64124 2.35 11.75 4.45876 11.75 7.05C11.75 9.64124 9.64124 11.75 7.05 11.75ZM9.4 44.65C5.51231 44.65 2.35 41.4877 2.35 37.6C2.35 33.7123 5.51231 30.55 9.4 30.55C13.2877 30.55 16.45 33.7123 16.45 37.6C16.45 41.4877 13.2877 44.65 9.4 44.65ZM35.25 35.25C30.0667 35.25 25.85 31.0333 25.85 25.85C25.85 20.6667 30.0667 16.45 35.25 16.45C40.4333 16.45 44.65 20.6667 44.65 25.85C44.65 31.0333 40.4333 35.25 35.25 35.25Z" fill="white"/>
</g>
<defs>
<clipPath id="clip0_3311_4901">
<rect width="47" height="47" fill="white"/>
</clipPath>
</defs>
</svg>
