<?xml version="1.0" encoding="UTF-8"?>
<svg version="1.1" xmlns="http://www.w3.org/2000/svg" width="120" height="154">
<path d="M0 0 C13.53 0 27.06 0 41 0 C41 12.54 41 25.08 41 38 C47.44843053 34.42768562 47.44843053 34.42768562 53.89379883 30.84985352 C54.69841553 30.40569092 55.50303223 29.96152832 56.33203125 29.50390625 C57.15421143 29.04830322 57.9763916 28.5927002 58.82348633 28.12329102 C61 27 61 27 64 26 C64 58.66666667 64 91.33333333 64 124 C62.20562774 123.13056189 60.41467775 122.25406086 58.625 121.375 C57.62726563 120.88773437 56.62953125 120.40046875 55.6015625 119.8984375 C50.96359257 117.45369413 46.49571162 114.69742697 42 112 C41.67 125.2 41.34 138.4 41 152 C27.47 152 13.94 152 0 152 C0 138.47 0 124.94 0 111 C-3.75375 113.18625 -7.5075 115.3725 -11.375 117.625 C-12.53692871 118.30127441 -13.69885742 118.97754883 -14.89599609 119.67431641 C-15.84555176 120.22780762 -16.79510742 120.78129883 -17.7734375 121.3515625 C-19.33916504 122.26276855 -19.33916504 122.26276855 -20.93652344 123.19238281 C-24.65000346 125.38353727 -28.31385455 127.6508289 -31.96337891 129.94677734 C-34 131 -34 131 -37 131 C-37.43344727 130.21351074 -37.86689453 129.42702148 -38.31347656 128.61669922 C-39.9365456 125.67461549 -41.56197095 122.7338591 -43.18896484 119.79394531 C-43.89009609 118.52590767 -44.59030856 117.25736154 -45.28955078 115.98828125 C-46.29994224 114.15487478 -47.3137215 112.32337654 -48.328125 110.4921875 C-48.9355957 109.39245605 -49.54306641 108.29272461 -50.16894531 107.15966797 C-51.96826001 103.93003746 -51.96826001 103.93003746 -54.29199219 100.84423828 C-56 98 -56 98 -56.05297852 95.81616211 C-54.54818437 93.22071494 -52.78088189 92.36617988 -50.15234375 90.94140625 C-49.15396484 90.39033203 -48.15558594 89.83925781 -47.12695312 89.27148438 C-46.07443359 88.70751953 -45.02191406 88.14355469 -43.9375 87.5625 C-41.88321186 86.44045324 -39.82980973 85.31678267 -37.77734375 84.19140625 C-36.79233887 83.65531738 -35.80733398 83.11922852 -34.79248047 82.56689453 C-32.26408594 81.14818181 -29.81840544 79.65498233 -27.37890625 78.08984375 C-24 76 -24 76 -22 76 C-24.55763925 73.11400775 -27.46891363 71.43209933 -30.8046875 69.53125 C-31.94550781 68.87769531 -33.08632813 68.22414063 -34.26171875 67.55078125 C-35.46605477 66.86702708 -36.67048269 66.18343476 -37.875 65.5 C-39.07187318 64.81685912 -40.26849051 64.13326978 -41.46484375 63.44921875 C-43.67296227 62.1870811 -45.882307 60.92708458 -48.09326172 59.66992188 C-50.74874483 58.14434616 -53.37992211 56.58543972 -56 55 C-55.31615821 51.37697937 -53.7896028 48.58253215 -51.98046875 45.38671875 C-51.37009766 44.30326172 -50.75972656 43.21980469 -50.13085938 42.10351562 C-49.48955078 40.97623047 -48.84824219 39.84894531 -48.1875 38.6875 C-47.55779297 37.57181641 -46.92808594 36.45613281 -46.27929688 35.30664062 C-43.20322604 29.86138197 -40.10877305 24.42664917 -37 19 C-32.55337982 19.59319353 -29.3859401 21.28271018 -25.52734375 23.52734375 C-24.92241592 23.87632217 -24.3174881 24.2253006 -23.69422913 24.58485413 C-21.77141969 25.69582758 -19.85436045 26.81629929 -17.9375 27.9375 C-16.01592928 29.05305648 -14.09322859 30.16663635 -12.1700592 31.2794342 C-10.42646591 32.28965569 -8.68569078 33.30473658 -6.94506836 34.32006836 C-4.66935383 35.61818588 -2.34332852 36.82833574 0 38 C0 25.46 0 12.92 0 0 Z " fill="#04D79D" transform="translate(56,0)"/>
<path d="M0 0 C4.42323682 0.58265272 7.5155864 2.26766211 11.3125 4.5625 C12.38113281 5.20316406 13.44976562 5.84382813 14.55078125 6.50390625 C15.35902344 6.99761719 16.16726562 7.49132812 17 8 C16.360625 8.28875 15.72125 8.5775 15.0625 8.875 C12.84793921 9.82823451 12.84793921 9.82823451 12 12 C11.01 11.67 10.02 11.34 9 11 C8.67 10.01 8.34 9.02 8 8 C7.34 8.66 6.68 9.32 6 10 C5.4225 9.690625 4.845 9.38125 4.25 9.0625 C2.15705816 8.07416636 0.25464725 7.4831387 -2 7 C-1.24849977 10.27773504 -1.24849977 10.27773504 2 12 C1.01 12.33 0.02 12.66 -1 13 C-1.66 12.67 -2.32 12.34 -3 12 C-3 12.66 -3 13.32 -3 14 C-4 15 -5 16 -6 17 C-6 17.66 -6 18.32 -6 19 C-7.32 19.33 -8.64 19.66 -10 20 C-8.56347895 15.08558588 -6.45840385 10.99761642 -3.875 6.625 C-3.50246094 5.98433594 -3.12992188 5.34367187 -2.74609375 4.68359375 C-1.83565998 3.11951523 -0.91851809 1.55934466 0 0 Z " fill="#15CF9B" transform="translate(19,19)"/>
<path d="M0 0 C0.99 0 1.98 0 3 0 C3.99 2.31 4.98 4.62 6 7 C6.99 7 7.98 7 9 7 C9.33 8.32 9.66 9.64 10 11 C9.34 11 8.68 11 8 11 C8 11.66 8 12.32 8 13 C9.32 13.33 10.64 13.66 12 14 C12.103125 14.515625 12.20625 15.03125 12.3125 15.5625 C13.2499528 18.8861963 14.47923874 21.89998666 16 25 C16.99 25.33 17.98 25.66 19 26 C19.66 24.02 20.32 22.04 21 20 C22.98 20.33 24.96 20.66 27 21 C27 20.34 27 19.68 27 19 C28.65 19 30.3 19 32 19 C29.08135291 21.2550104 26.08480977 23.26493521 22.9375 25.1875 C22.08027344 25.71730469 21.22304688 26.24710938 20.33984375 26.79296875 C18 28 18 28 15 28 C12.86107842 24.17459185 10.72490557 20.34766644 8.59130859 16.51928711 C7.86453102 15.21612776 7.1369933 13.91339205 6.40869141 12.61108398 C5.36422558 10.74312436 4.32246974 8.87367675 3.28125 7.00390625 C2.65283203 5.87799072 2.02441406 4.7520752 1.37695312 3.59204102 C0 1 0 1 0 0 Z " fill="#22C195" transform="translate(4,103)"/>
<path d="M0 0 C0.66 0 1.32 0 2 0 C2 12.54 2 25.08 2 38 C3.98 37.01 5.96 36.02 8 35 C8.66 35 9.32 35 10 35 C10 35.66 10 36.32 10 37 C9.01 37 8.02 37 7 37 C7 37.66 7 38.32 7 39 C5.0085944 39.38133299 3.00720923 39.71325582 1 40 C0 39 0 39 -0.11352539 35.30639648 C-0.11336624 33.66128708 -0.10766988 32.01617269 -0.09765625 30.37109375 C-0.0962413 29.50686295 -0.09482635 28.64263214 -0.09336853 27.75221252 C-0.08775239 24.98060708 -0.07519719 22.2090812 -0.0625 19.4375 C-0.05748708 17.5631522 -0.05292381 15.68880315 -0.04882812 13.81445312 C-0.03777772 9.20960456 -0.0205023 4.60481579 0 0 Z " fill="#2CC79F" transform="translate(95,0)"/>
<path d="M0 0 C0.12375 0.639375 0.2475 1.27875 0.375 1.9375 C0.684375 2.9584375 0.684375 2.9584375 1 4 C1.66 4.33 2.32 4.66 3 5 C2.01 5.33 1.02 5.66 0 6 C-0.33 6.99 -0.66 7.98 -1 9 C4.445 10.485 4.445 10.485 10 12 C10 12.66 10 13.32 10 14 C10.66 14.33 11.32 14.66 12 15 C12 15.66 12 16.32 12 17 C12.763125 17.103125 13.52625 17.20625 14.3125 17.3125 C17.17059424 18.04364039 18.15742885 18.76951913 20 21 C16.46512404 21 15.14263493 20.13753305 12.11328125 18.375 C11.17548828 17.83359375 10.23769531 17.2921875 9.27148438 16.734375 C8.29501953 16.16203125 7.31855469 15.5896875 6.3125 15 C5.32443359 14.42765625 4.33636719 13.8553125 3.31835938 13.265625 C0.87550124 11.84947536 -1.56371318 10.42741542 -4 9 C-3.23596585 5.52846619 -1.91813089 3.00229182 0 0 Z " fill="#22C096" transform="translate(4,46)"/>
<path d="M0 0 C0.99 0 1.98 0 3 0 C3 0.99 3 1.98 3 3 C3.99 3 4.98 3 6 3 C6 3.66 6 4.32 6 5 C4.35 4.67 2.7 4.34 1 4 C0.67 16.87 0.34 29.74 0 43 C-0.33 43 -0.66 43 -1 43 C-1.02470254 37.35832031 -1.04286121 31.71667205 -1.05493164 26.07495117 C-1.05996315 24.15534924 -1.06678898 22.23575114 -1.07543945 20.31616211 C-1.08755669 17.55842136 -1.09324011 14.80073124 -1.09765625 12.04296875 C-1.10281754 11.18350143 -1.10797882 10.32403412 -1.11329651 9.43852234 C-1.11337204 8.63791885 -1.11344757 7.83731537 -1.11352539 7.01245117 C-1.115746 6.3085173 -1.11796661 5.60458344 -1.12025452 4.87931824 C-1 3 -1 3 0 0 Z " fill="#18CD9C" transform="translate(96,108)"/>
<path d="M0 0 C0.66 0 1.32 0 2 0 C2.66 1.98 3.32 3.96 4 6 C3.443125 6.12375 2.88625 6.2475 2.3125 6.375 C-0.22114364 7.05976855 -2.57921032 7.99133763 -5 9 C-5 8.34 -5 7.68 -5 7 C-4.34 7 -3.68 7 -3 7 C-3 6.34 -3 5.68 -3 5 C-2.34 5 -1.68 5 -1 5 C-0.67 3.35 -0.34 1.7 0 0 Z " fill="#17CD9B" transform="translate(53,106)"/>
<path d="M0 0 C0.66 0.33 1.32 0.66 2 1 C1.67 1.66 1.34 2.32 1 3 C0.01 3 -0.98 3 -2 3 C-1.67 5.64 -1.34 8.28 -1 11 C-5 6.63636364 -5 6.63636364 -5 3.8125 C-3.69798361 1.45259529 -2.53180937 0.84393646 0 0 Z " fill="#26BF95" transform="translate(5,92)"/>
<path d="M0 0 C1.65 0 3.3 0 5 0 C2.702779 1.74271938 0.40133271 3.39911152 -2 5 C-4.6875 4.625 -4.6875 4.625 -7 4 C-6.34 3.01 -5.68 2.02 -5 1 C-3.35 1.33 -1.7 1.66 0 2 C0 1.34 0 0.68 0 0 Z " fill="#1AC999" transform="translate(31,122)"/>
<path d="M0 0 C0.66 0.33 1.32 0.66 2 1 C1.67 1.66 1.34 2.32 1 3 C0.34 3 -0.32 3 -1 3 C-1 3.66 -1 4.32 -1 5 C-3.97 5.66 -6.94 6.32 -10 7 C-6.73093793 3.73093793 -4.09304414 2.08373156 0 0 Z " fill="#26C399" transform="translate(29,78)"/>
<path d="M0 0 C3.96 1.98 3.96 1.98 8 4 C6.02 4.99 6.02 4.99 4 6 C3.67 6.66 3.34 7.32 3 8 C2.01 7.67 1.02 7.34 0 7 C0.66 5.68 1.32 4.36 2 3 C1.34 2.67 0.68 2.34 0 2 C0 1.34 0 0.68 0 0 Z " fill="#19CB99" transform="translate(28,23)"/>
<path d="M0 0 C2.31 0.33 4.62 0.66 7 1 C6.67 1.99 6.34 2.98 6 4 C3.83125748 3.49396008 2.00032373 3.00016187 0 2 C0 1.34 0 0.68 0 0 Z " fill="#18C89B" transform="translate(7,57)"/>
<path d="M0 0 C2.125 0.9375 2.125 0.9375 4 2 C1.35261084 3.4606285 0.10551666 4 -3 4 C-2.67 3.01 -2.34 2.02 -2 1 C-1.34 0.67 -0.68 0.34 0 0 Z " fill="#14CC9A" transform="translate(10,89)"/>
</svg>
