<svg width="1920" height="861" viewBox="0 0 1920 861" fill="none" xmlns="http://www.w3.org/2000/svg">
<rect width="1920" height="861" fill="#262626"/>
<mask id="mask0_3311_4340" style="mask-type:luminance" maskUnits="userSpaceOnUse" x="-23" y="0" width="2807" height="1604">
<path d="M2783.24 0H-23V1603.57H2783.24V0Z" fill="white"/>
</mask>
<g mask="url(#mask0_3311_4340)">
<path d="M2995.92 1813.77H-235.684V-210.203H2995.92L2995.92 1813.77ZM-231.507 1809.6H2991.75V-206.027H-231.507V1809.6Z" fill="#B3B3B3" fill-opacity="0.1"/>
<path d="M2993.84 799.695H-233.594V803.871H2993.84V799.695Z" fill="#B3B3B3" fill-opacity="0.1"/>
<path d="M2993.84 698.707H-233.594V702.883H2993.84V698.707Z" fill="#B3B3B3" fill-opacity="0.1"/>
<path d="M2993.84 597.715H-233.594V601.891H2993.84V597.715Z" fill="#B3B3B3" fill-opacity="0.1"/>
<path d="M2993.84 496.727H-233.594V500.903H2993.84V496.727Z" fill="#B3B3B3" fill-opacity="0.1"/>
<path d="M2993.84 395.734H-233.594V399.91H2993.84V395.734Z" fill="#B3B3B3" fill-opacity="0.1"/>
<path d="M2993.84 294.746H-233.594V298.922H2993.84V294.746Z" fill="#B3B3B3" fill-opacity="0.1"/>
<path d="M2993.84 193.758H-233.594V197.934H2993.84V193.758Z" fill="#B3B3B3" fill-opacity="0.1"/>
<path d="M2993.84 92.7656H-233.594V96.9416H2993.84V92.7656Z" fill="#B3B3B3" fill-opacity="0.1"/>
<path d="M1920.11 -208.113H1915.94V1811.68H1920.11V-208.113Z" fill="#B3B3B3" fill-opacity="0.1"/>
<path d="M1822.31 -208.113H1818.13V1811.68H1822.31V-208.113Z" fill="#B3B3B3" fill-opacity="0.1"/>
<path d="M1724.51 -208.113H1720.34V1811.68H1724.51V-208.113Z" fill="#B3B3B3" fill-opacity="0.1"/>
<path d="M1626.71 -208.113H1622.54V1811.68H1626.71V-208.113Z" fill="#B3B3B3" fill-opacity="0.1"/>
<path d="M1528.91 -208.113H1524.73V1811.68H1528.91V-208.113Z" fill="#B3B3B3" fill-opacity="0.1"/>
<path d="M1431.11 -208.113H1426.93V1811.68H1431.11V-208.113Z" fill="#B3B3B3" fill-opacity="0.1"/>
<path d="M1333.31 -208.113H1329.13V1811.68H1333.31V-208.113Z" fill="#B3B3B3" fill-opacity="0.1"/>
<path d="M1235.51 -208.113H1231.33V1811.68H1235.51V-208.113Z" fill="#B3B3B3" fill-opacity="0.1"/>
<path d="M1137.71 -208.113H1133.53V1811.68H1137.71V-208.113Z" fill="#B3B3B3" fill-opacity="0.1"/>
<path d="M1039.91 -208.113H1035.73V1811.68H1039.91V-208.113Z" fill="#B3B3B3" fill-opacity="0.1"/>
<path d="M942.102 -208.113H937.926V1811.68H942.102V-208.113Z" fill="#B3B3B3" fill-opacity="0.1"/>
<path d="M844.301 -208.113H840.125V1811.68H844.301V-208.113Z" fill="#B3B3B3" fill-opacity="0.1"/>
<path d="M746.5 -208.113H742.324V1811.68H746.5V-208.113Z" fill="#B3B3B3" fill-opacity="0.1"/>
<path d="M648.699 -208.113H644.523V1811.68H648.699V-208.113Z" fill="#B3B3B3" fill-opacity="0.1"/>
<path d="M550.899 -208.113H546.723V1811.68H550.899V-208.113Z" fill="#B3B3B3" fill-opacity="0.1"/>
<path d="M453.098 -208.113H448.922V1811.68H453.098V-208.113Z" fill="#B3B3B3" fill-opacity="0.1"/>
<path d="M355.297 -208.113H351.121V1811.68H355.297V-208.113Z" fill="#B3B3B3" fill-opacity="0.1"/>
<path d="M257.5 -208.113H253.324V1811.68H257.5V-208.113Z" fill="#B3B3B3" fill-opacity="0.1"/>
<path d="M159.699 -208.113H155.523V1811.68H159.699V-208.113Z" fill="#B3B3B3" fill-opacity="0.1"/>
<path d="M61.8948 -208.113H57.7188V1811.68H61.8948V-208.113Z" fill="#B3B3B3" fill-opacity="0.1"/>
</g>
<g clip-path="url(#clip0_3311_4340)">
<path d="M1933.67 137.826L1970.82 116.37L1949.99 80.2824L1912.83 101.739V59H1871.16V101.739L1834 80.2824L1813.17 116.37L1850.33 137.826L1813.17 159.282L1834 195.37L1871.16 173.914V217H1912.83V173.914L1949.99 195.37L1970.83 159.282L1933.67 137.826Z" fill="#03D89F"/>
</g>
<defs>
<clipPath id="clip0_3311_4340">
<rect width="158" height="158" fill="white" transform="translate(1813 59)"/>
</clipPath>
</defs>
</svg>
