<svg width="1870" height="962" viewBox="0 0 1870 962" fill="none" xmlns="http://www.w3.org/2000/svg">
<mask id="mask0_3311_4777" style="mask-type:luminance" maskUnits="userSpaceOnUse" x="-39" y="-46" width="2039" height="1153">
<path d="M1999.63 -46H-39V1106.57H1999.63V-46Z" fill="white"/>
</mask>
<g mask="url(#mask0_3311_4777)">
<path d="M2154.14 1257.66H-193.504V-197.086H2154.14L2154.14 1257.66ZM-190.469 1254.65H2151.1V-194.084H-190.469V1254.65Z" fill="#646363" fill-opacity="0.1"/>
<path d="M2152.62 891.719H-191.988V894.72H2152.62V891.719Z" fill="#646363" fill-opacity="0.1"/>
<path d="M2152.62 819.131H-191.988V822.132H2152.62V819.131Z" fill="#646363" fill-opacity="0.1"/>
<path d="M2152.62 746.543H-191.988V749.544H2152.62V746.543Z" fill="#646363" fill-opacity="0.1"/>
<path d="M2152.62 673.959H-191.988V676.96H2152.62V673.959Z" fill="#646363" fill-opacity="0.1"/>
<path d="M2152.62 601.371H-191.988V604.373H2152.62V601.371Z" fill="#646363" fill-opacity="0.1"/>
<path d="M2152.62 528.783H-191.988V531.785H2152.62V528.783Z" fill="#646363" fill-opacity="0.1"/>
<path d="M2152.62 456.197H-191.988V459.199H2152.62V456.197Z" fill="#646363" fill-opacity="0.1"/>
<path d="M2152.62 383.609H-191.988V386.611H2152.62V383.609Z" fill="#646363" fill-opacity="0.1"/>
<path d="M2152.62 311.021H-191.988V314.023H2152.62V311.021Z" fill="#646363" fill-opacity="0.1"/>
<path d="M2152.62 238.436H-191.988V241.437H2152.62V238.436Z" fill="#646363" fill-opacity="0.1"/>
<path d="M2152.62 165.85H-191.988V168.851H2152.62V165.85Z" fill="#646363" fill-opacity="0.1"/>
<path d="M2152.62 93.2617H-191.988V96.2632H2152.62V93.2617Z" fill="#646363" fill-opacity="0.1"/>
<path d="M2152.62 20.6738H-191.988V23.6753H2152.62V20.6738Z" fill="#646363" fill-opacity="0.1"/>
<path d="M1869.94 -195.584H1866.91V1256.16H1869.94V-195.584Z" fill="#646363" fill-opacity="0.1"/>
<path d="M1798.89 -195.584H1795.86V1256.16H1798.89V-195.584Z" fill="#646363" fill-opacity="0.1"/>
<path d="M1727.84 -195.584H1724.81V1256.16H1727.84V-195.584Z" fill="#646363" fill-opacity="0.1"/>
<path d="M1656.8 -195.584H1653.76V1256.16H1656.8V-195.584Z" fill="#646363" fill-opacity="0.1"/>
<path d="M1585.75 -195.584H1582.71V1256.16H1585.75V-195.584Z" fill="#646363" fill-opacity="0.1"/>
<path d="M1514.7 -195.584H1511.66V1256.16H1514.7V-195.584Z" fill="#646363" fill-opacity="0.1"/>
<path d="M1443.65 -195.584H1440.62V1256.16H1443.65V-195.584Z" fill="#646363" fill-opacity="0.1"/>
<path d="M1372.6 -195.584H1369.57V1256.16H1372.6V-195.584Z" fill="#646363" fill-opacity="0.1"/>
<path d="M1301.55 -195.584H1298.52V1256.16H1301.55V-195.584Z" fill="#646363" fill-opacity="0.1"/>
<path d="M1230.5 -195.584H1227.47V1256.16H1230.5V-195.584Z" fill="#646363" fill-opacity="0.1"/>
<path d="M1159.46 -195.584H1156.42V1256.16H1159.46V-195.584Z" fill="#646363" fill-opacity="0.1"/>
<path d="M1088.4 -195.584H1085.37V1256.16H1088.4V-195.584Z" fill="#646363" fill-opacity="0.1"/>
<path d="M1017.36 -195.584H1014.32V1256.16H1017.36V-195.584Z" fill="#646363" fill-opacity="0.1"/>
<path d="M946.307 -195.584H943.273V1256.16H946.307V-195.584Z" fill="#646363" fill-opacity="0.1"/>
<path d="M875.26 -195.584H872.227V1256.16H875.26V-195.584Z" fill="#646363" fill-opacity="0.1"/>
<path d="M804.213 -195.584H801.18V1256.16H804.213V-195.584Z" fill="#646363" fill-opacity="0.1"/>
<path d="M733.163 -195.584H730.129V1256.16H733.163V-195.584Z" fill="#646363" fill-opacity="0.1"/>
<path d="M662.112 -195.584H659.078V1256.16H662.112V-195.584Z" fill="#646363" fill-opacity="0.1"/>
<path d="M591.065 -195.584H588.031V1256.16H591.065V-195.584Z" fill="#646363" fill-opacity="0.1"/>
<path d="M520.018 -195.584H516.984V1256.16H520.018V-195.584Z" fill="#646363" fill-opacity="0.1"/>
<path d="M448.967 -195.584H445.934V1256.16H448.967V-195.584Z" fill="#646363" fill-opacity="0.1"/>
<path d="M377.92 -195.584H374.887V1256.16H377.92V-195.584Z" fill="#646363" fill-opacity="0.1"/>
<path d="M306.87 -195.584H303.836V1256.16H306.87V-195.584Z" fill="#646363" fill-opacity="0.1"/>
<path d="M235.823 -195.584H232.789V1256.16H235.823V-195.584Z" fill="#646363" fill-opacity="0.1"/>
<path d="M164.776 -195.584H161.742V1256.16H164.776V-195.584Z" fill="#646363" fill-opacity="0.1"/>
<path d="M93.7251 -195.584H90.6914V1256.16H93.7251V-195.584Z" fill="#646363" fill-opacity="0.1"/>
<path d="M22.6743 -195.584H19.6406V1256.16H22.6743V-195.584Z" fill="#646363" fill-opacity="0.1"/>
</g>
</svg>
