<svg width="47" height="47" viewBox="0 0 47 47" fill="none" xmlns="http://www.w3.org/2000/svg">
<g clip-path="url(#clip0_3311_4326)">
<path d="M23.5 0C10.5218 0 0 10.5218 0 23.5C0 36.4782 10.5218 47 23.5 47C36.4782 47 47 36.4782 47 23.5C47 10.5218 36.4782 0 23.5 0ZM15.8084 3.81958C13.5196 6.30902 11.7069 9.88964 10.5985 14.1001H4.5668C6.9012 9.4313 10.9118 5.73951 15.8084 3.81958ZM2.35 23.5C2.35 21.0216 2.81605 18.6598 3.60413 16.45H10.0753C9.65226 18.6801 9.4 21.0364 9.4 23.5C9.4 25.9636 9.65226 28.3199 10.0744 30.55H3.60413C2.81605 28.3402 2.35 25.9785 2.35 23.5ZM4.5668 32.9H10.5985C11.7077 37.1104 13.5196 40.691 15.8084 43.1804C10.9118 41.2605 6.9012 37.5687 4.5668 32.9ZM22.325 44.5387C18.3034 43.7812 14.8089 39.1925 13.0206 32.9H22.325V44.5387ZM22.325 30.55H12.4605C12.0085 28.3316 11.75 25.9604 11.75 23.5C11.75 21.0396 12.0085 18.6684 12.4605 16.45H22.325V30.55ZM22.325 14.1H13.0206C14.8089 7.80751 18.3034 3.21867 22.325 2.46126V14.1ZM42.4332 14.1H36.4015C35.2923 9.88955 33.4804 6.30892 31.1916 3.81948C36.0882 5.73951 40.0988 9.4313 42.4332 14.1ZM24.675 2.46126C28.6966 3.21877 32.1911 7.80751 33.9794 14.1H24.675V2.46126ZM24.675 16.45H34.5395C34.9915 18.6684 35.25 21.0396 35.25 23.5C35.25 25.9604 34.9915 28.3316 34.5395 30.55H24.675V16.45ZM24.675 44.5387V32.9H33.9794C32.1911 39.1925 28.6966 43.7813 24.675 44.5387ZM31.1916 43.1804C33.4804 40.6903 35.2923 37.1104 36.4015 32.9H42.4332C40.0988 37.5687 36.0882 41.2605 31.1916 43.1804ZM36.9247 30.55C37.3477 28.3199 37.6 25.9636 37.6 23.5C37.6 21.0364 37.3477 18.6801 36.9256 16.45H43.3967C44.1839 18.6598 44.65 21.0216 44.65 23.5C44.65 25.9785 44.1839 28.3402 43.3959 30.55H36.9247Z" fill="#03D89F"/>
</g>
<defs>
<clipPath id="clip0_3311_4326">
<rect width="47" height="47" fill="white"/>
</clipPath>
</defs>
</svg>
